<mxfile host="app.diagrams.net" agent="Mozilla/5.0 (Macintosh; Intel Mac OS X 10_15_7) AppleWebKit/537.36 (KHTML, like Gecko) Chrome/128.0.0.0 Safari/537.36" version="27.0.8">
  <diagram name="第 1 页" id="PZtgD9VLAa3Xq2h1W10F">
    <mxGraphModel dx="946" dy="671" grid="0" gridSize="10" guides="1" tooltips="1" connect="1" arrows="1" fold="1" page="1" pageScale="1" pageWidth="827" pageHeight="1169" math="0" shadow="0">
      <root>
        <mxCell id="0" />
        <mxCell id="1" parent="0" />
        <mxCell id="LTBSq_qg97RKEcHS7W4E-15" value="" style="rounded=0;orthogonalLoop=1;jettySize=auto;html=1;" edge="1" parent="1" source="LTBSq_qg97RKEcHS7W4E-1" target="LTBSq_qg97RKEcHS7W4E-3">
          <mxGeometry relative="1" as="geometry" />
        </mxCell>
        <mxCell id="LTBSq_qg97RKEcHS7W4E-1" value="微信公众号" style="rounded=1;whiteSpace=wrap;html=1;" vertex="1" parent="1">
          <mxGeometry x="349.5" y="101" width="120" height="60" as="geometry" />
        </mxCell>
        <mxCell id="LTBSq_qg97RKEcHS7W4E-14" value="" style="edgeStyle=orthogonalEdgeStyle;rounded=0;orthogonalLoop=1;jettySize=auto;html=1;" edge="1" parent="1" source="LTBSq_qg97RKEcHS7W4E-3" target="LTBSq_qg97RKEcHS7W4E-5">
          <mxGeometry relative="1" as="geometry" />
        </mxCell>
        <mxCell id="LTBSq_qg97RKEcHS7W4E-3" value="&lt;span style=&quot;color: rgb(56, 58, 66); font-family: &amp;quot;Cascadia Code&amp;quot;, &amp;quot;Fira Code&amp;quot;, Consolas, monospace; font-size: 13px; text-align: left; white-space: pre; background-color: rgb(250, 250, 250);&quot;&gt;ChatGPTOnWechat改造接口&lt;/span&gt;" style="rounded=1;whiteSpace=wrap;html=1;" vertex="1" parent="1">
          <mxGeometry x="302" y="193" width="215" height="60" as="geometry" />
        </mxCell>
        <mxCell id="LTBSq_qg97RKEcHS7W4E-12" style="rounded=0;orthogonalLoop=1;jettySize=auto;html=1;entryX=0.5;entryY=0;entryDx=0;entryDy=0;" edge="1" parent="1" source="LTBSq_qg97RKEcHS7W4E-5" target="LTBSq_qg97RKEcHS7W4E-7">
          <mxGeometry relative="1" as="geometry" />
        </mxCell>
        <mxCell id="LTBSq_qg97RKEcHS7W4E-13" style="rounded=0;orthogonalLoop=1;jettySize=auto;html=1;" edge="1" parent="1" source="LTBSq_qg97RKEcHS7W4E-5" target="LTBSq_qg97RKEcHS7W4E-9">
          <mxGeometry relative="1" as="geometry" />
        </mxCell>
        <mxCell id="LTBSq_qg97RKEcHS7W4E-5" value="&lt;span style=&quot;color: rgb(56, 58, 66); font-family: &amp;quot;Cascadia Code&amp;quot;, &amp;quot;Fira Code&amp;quot;, Consolas, monospace; font-size: 13px; text-align: left; white-space: pre; background-color: rgb(250, 250, 250);&quot;&gt;FastGPT API服务层&lt;/span&gt;" style="rounded=1;whiteSpace=wrap;html=1;" vertex="1" parent="1">
          <mxGeometry x="318.5" y="297" width="182" height="58" as="geometry" />
        </mxCell>
        <mxCell id="LTBSq_qg97RKEcHS7W4E-11" style="edgeStyle=orthogonalEdgeStyle;rounded=0;orthogonalLoop=1;jettySize=auto;html=1;exitX=0.5;exitY=1;exitDx=0;exitDy=0;" edge="1" parent="1" source="LTBSq_qg97RKEcHS7W4E-7" target="LTBSq_qg97RKEcHS7W4E-10">
          <mxGeometry relative="1" as="geometry" />
        </mxCell>
        <mxCell id="LTBSq_qg97RKEcHS7W4E-7" value="&lt;span style=&quot;color: rgb(56, 58, 66); font-family: &amp;quot;Cascadia Code&amp;quot;, &amp;quot;Fira Code&amp;quot;, Consolas, monospace; font-size: 13px; text-align: left; white-space: pre; background-color: rgb(250, 250, 250);&quot;&gt;BGE-M3向量化模型&lt;/span&gt;" style="rounded=1;whiteSpace=wrap;html=1;" vertex="1" parent="1">
          <mxGeometry x="254" y="420" width="146" height="60" as="geometry" />
        </mxCell>
        <mxCell id="LTBSq_qg97RKEcHS7W4E-9" value="&lt;span style=&quot;color: rgb(56, 58, 66); font-family: &amp;quot;Cascadia Code&amp;quot;, &amp;quot;Fira Code&amp;quot;, Consolas, monospace; font-size: 13px; text-align: left; white-space: pre; background-color: rgb(250, 250, 250);&quot;&gt;通义千问32B模型&lt;/span&gt;" style="rounded=1;whiteSpace=wrap;html=1;" vertex="1" parent="1">
          <mxGeometry x="452" y="420" width="120" height="60" as="geometry" />
        </mxCell>
        <mxCell id="LTBSq_qg97RKEcHS7W4E-10" value="PgVector&lt;div&gt;向量库&lt;/div&gt;" style="shape=cylinder3;whiteSpace=wrap;html=1;boundedLbl=1;backgroundOutline=1;size=15;" vertex="1" parent="1">
          <mxGeometry x="279" y="509" width="96" height="69" as="geometry" />
        </mxCell>
      </root>
    </mxGraphModel>
  </diagram>
</mxfile>
